<mxfile host="Electron" agent="Mozilla/5.0 (Windows NT 10.0; Win64; x64) AppleWebKit/537.36 (KHTML, like Gecko) draw.io/26.2.15 Chrome/134.0.6998.205 Electron/35.2.1 Safari/537.36" version="26.2.15">
  <diagram name="第 1 页" id="t4nXpEG4UmCVALgmbcxh">
    <mxGraphModel dx="922" dy="675" grid="1" gridSize="10" guides="1" tooltips="1" connect="1" arrows="1" fold="1" page="1" pageScale="1" pageWidth="827" pageHeight="1169" math="0" shadow="0">
      <root>
        <mxCell id="0" />
        <mxCell id="1" parent="0" />
        <mxCell id="2QlJ33sq4UzQhBC_yE_C-11" style="edgeStyle=orthogonalEdgeStyle;rounded=0;orthogonalLoop=1;jettySize=auto;html=1;entryX=0.5;entryY=0;entryDx=0;entryDy=0;curved=1;" parent="1" source="2QlJ33sq4UzQhBC_yE_C-1" target="2QlJ33sq4UzQhBC_yE_C-7" edge="1">
          <mxGeometry relative="1" as="geometry" />
        </mxCell>
        <mxCell id="2QlJ33sq4UzQhBC_yE_C-13" value="&lt;font style=&quot;font-size: 14px;&quot;&gt;丟進 Model&lt;/font&gt;" style="edgeLabel;html=1;align=center;verticalAlign=middle;resizable=0;points=[];" parent="2QlJ33sq4UzQhBC_yE_C-11" vertex="1" connectable="0">
          <mxGeometry x="-0.2793" y="17" relative="1" as="geometry">
            <mxPoint as="offset" />
          </mxGeometry>
        </mxCell>
        <mxCell id="2QlJ33sq4UzQhBC_yE_C-1" value="&lt;b&gt;&lt;font style=&quot;font-size: 16px;&quot;&gt;資料集好大&lt;/font&gt;&lt;/b&gt;" style="swimlane;fontStyle=0;childLayout=stackLayout;horizontal=1;startSize=26;fillColor=#dae8fc;horizontalStack=0;resizeParent=1;resizeParentMax=0;resizeLast=0;collapsible=1;marginBottom=0;html=1;strokeColor=#6c8ebf;" parent="1" vertex="1">
          <mxGeometry x="304" y="30" width="220" height="104" as="geometry" />
        </mxCell>
        <mxCell id="2QlJ33sq4UzQhBC_yE_C-2" value="直接丟進 Model 中" style="text;align=left;verticalAlign=top;spacingLeft=4;spacingRight=4;overflow=hidden;rotatable=0;points=[[0,0.5],[1,0.5]];portConstraint=eastwest;whiteSpace=wrap;html=1;fillColor=#f5f5f5;strokeColor=#666666;fontColor=#333333;" parent="2QlJ33sq4UzQhBC_yE_C-1" vertex="1">
          <mxGeometry y="26" width="220" height="26" as="geometry" />
        </mxCell>
        <mxCell id="2QlJ33sq4UzQhBC_yE_C-3" value="兩兩參數比對" style="text;align=left;verticalAlign=top;spacingLeft=4;spacingRight=4;overflow=hidden;rotatable=0;points=[[0,0.5],[1,0.5]];portConstraint=eastwest;whiteSpace=wrap;html=1;fillColor=#f5f5f5;strokeColor=#666666;fontColor=#333333;" parent="2QlJ33sq4UzQhBC_yE_C-1" vertex="1">
          <mxGeometry y="52" width="220" height="26" as="geometry" />
        </mxCell>
        <mxCell id="2QlJ33sq4UzQhBC_yE_C-4" value="做 Feature Selection" style="text;align=left;verticalAlign=top;spacingLeft=4;spacingRight=4;overflow=hidden;rotatable=0;points=[[0,0.5],[1,0.5]];portConstraint=eastwest;whiteSpace=wrap;html=1;fillColor=#f5f5f5;strokeColor=#666666;fontColor=#333333;" parent="2QlJ33sq4UzQhBC_yE_C-1" vertex="1">
          <mxGeometry y="78" width="220" height="26" as="geometry" />
        </mxCell>
        <mxCell id="2QlJ33sq4UzQhBC_yE_C-7" value="&lt;span style=&quot;font-size: 16px;&quot;&gt;&lt;b&gt;資料集 A 有缺失值&lt;/b&gt;&lt;/span&gt;" style="swimlane;fontStyle=0;childLayout=stackLayout;horizontal=1;startSize=26;fillColor=#dae8fc;horizontalStack=0;resizeParent=1;resizeParentMax=0;resizeLast=0;collapsible=1;marginBottom=0;html=1;strokeColor=#6c8ebf;" parent="1" vertex="1">
          <mxGeometry x="70" y="190" width="220" height="116" as="geometry">
            <mxRectangle x="70" y="190" width="170" height="30" as="alternateBounds" />
          </mxGeometry>
        </mxCell>
        <mxCell id="2QlJ33sq4UzQhBC_yE_C-8" value="不考慮參數 13 其餘補滿" style="text;align=left;verticalAlign=top;spacingLeft=4;spacingRight=4;overflow=hidden;rotatable=0;points=[[0,0.5],[1,0.5]];portConstraint=eastwest;whiteSpace=wrap;html=1;fillColor=#f5f5f5;strokeColor=#666666;fontColor=#333333;" parent="2QlJ33sq4UzQhBC_yE_C-7" vertex="1">
          <mxGeometry y="26" width="220" height="24" as="geometry" />
        </mxCell>
        <mxCell id="2QlJ33sq4UzQhBC_yE_C-9" value="不處理有缺失值的資料&lt;div&gt;( 參數 13 幾乎都沒有資料)&lt;/div&gt;" style="text;align=left;verticalAlign=top;spacingLeft=4;spacingRight=4;overflow=hidden;rotatable=0;points=[[0,0.5],[1,0.5]];portConstraint=eastwest;whiteSpace=wrap;html=1;fillColor=#f5f5f5;strokeColor=#666666;fontColor=#333333;" parent="2QlJ33sq4UzQhBC_yE_C-7" vertex="1">
          <mxGeometry y="50" width="220" height="40" as="geometry" />
        </mxCell>
        <mxCell id="2QlJ33sq4UzQhBC_yE_C-10" value="全部參數數值均補滿" style="text;align=left;verticalAlign=top;spacingLeft=4;spacingRight=4;overflow=hidden;rotatable=0;points=[[0,0.5],[1,0.5]];portConstraint=eastwest;whiteSpace=wrap;html=1;fillColor=#f5f5f5;strokeColor=#666666;fontColor=#333333;" parent="2QlJ33sq4UzQhBC_yE_C-7" vertex="1">
          <mxGeometry y="90" width="220" height="26" as="geometry" />
        </mxCell>
        <mxCell id="-wlRJgJCSJHxcQHZKysQ-1" value="&lt;span style=&quot;font-size: 16px;&quot;&gt;&lt;b&gt;解決方法&lt;/b&gt;&lt;/span&gt;" style="swimlane;fontStyle=0;childLayout=stackLayout;horizontal=1;startSize=30;fillColor=#ffe6cc;horizontalStack=0;resizeParent=1;resizeParentMax=0;resizeLast=0;collapsible=1;marginBottom=0;html=1;strokeColor=#d79b00;" vertex="1" parent="1">
          <mxGeometry x="20" y="400" width="220" height="182" as="geometry">
            <mxRectangle x="70" y="190" width="170" height="30" as="alternateBounds" />
          </mxGeometry>
        </mxCell>
        <mxCell id="-wlRJgJCSJHxcQHZKysQ-2" value="1. &lt;b&gt;刪除&lt;/b&gt; 10 ~ 14" style="text;align=left;verticalAlign=top;spacingLeft=4;spacingRight=4;overflow=hidden;rotatable=0;points=[[0,0.5],[1,0.5]];portConstraint=eastwest;whiteSpace=wrap;html=1;fillColor=#f5f5f5;strokeColor=#666666;fontColor=#333333;" vertex="1" parent="-wlRJgJCSJHxcQHZKysQ-1">
          <mxGeometry y="30" width="220" height="24" as="geometry" />
        </mxCell>
        <mxCell id="-wlRJgJCSJHxcQHZKysQ-3" value="↓ 僅刪除 13" style="text;align=left;verticalAlign=top;spacingLeft=4;spacingRight=4;overflow=hidden;rotatable=0;points=[[0,0.5],[1,0.5]];portConstraint=eastwest;whiteSpace=wrap;html=1;fillColor=#f5f5f5;strokeColor=#666666;fontColor=#333333;" vertex="1" parent="-wlRJgJCSJHxcQHZKysQ-1">
          <mxGeometry y="54" width="220" height="24" as="geometry" />
        </mxCell>
        <mxCell id="-wlRJgJCSJHxcQHZKysQ-4" value="2. 以&lt;b&gt;眾數&lt;/b&gt;補滿" style="text;align=left;verticalAlign=top;spacingLeft=4;spacingRight=4;overflow=hidden;rotatable=0;points=[[0,0.5],[1,0.5]];portConstraint=eastwest;whiteSpace=wrap;html=1;fillColor=#f5f5f5;strokeColor=#666666;fontColor=#333333;" vertex="1" parent="-wlRJgJCSJHxcQHZKysQ-1">
          <mxGeometry y="78" width="220" height="26" as="geometry" />
        </mxCell>
        <mxCell id="-wlRJgJCSJHxcQHZKysQ-13" value="3. 以&lt;b&gt;平均數&lt;/b&gt;補滿" style="text;align=left;verticalAlign=top;spacingLeft=4;spacingRight=4;overflow=hidden;rotatable=0;points=[[0,0.5],[1,0.5]];portConstraint=eastwest;whiteSpace=wrap;html=1;fillColor=#f5f5f5;strokeColor=#666666;fontColor=#333333;" vertex="1" parent="-wlRJgJCSJHxcQHZKysQ-1">
          <mxGeometry y="104" width="220" height="26" as="geometry" />
        </mxCell>
        <mxCell id="-wlRJgJCSJHxcQHZKysQ-14" value="4. 以&lt;b&gt;中位數&lt;/b&gt;補滿" style="text;align=left;verticalAlign=top;spacingLeft=4;spacingRight=4;overflow=hidden;rotatable=0;points=[[0,0.5],[1,0.5]];portConstraint=eastwest;whiteSpace=wrap;html=1;fillColor=#f5f5f5;strokeColor=#666666;fontColor=#333333;" vertex="1" parent="-wlRJgJCSJHxcQHZKysQ-1">
          <mxGeometry y="130" width="220" height="26" as="geometry" />
        </mxCell>
        <mxCell id="-wlRJgJCSJHxcQHZKysQ-15" value="5. &lt;font style=&quot;color: rgb(255, 181, 112);&quot;&gt;以 &lt;b&gt;KNN&lt;/b&gt; 補滿 (K 參數問題)&lt;/font&gt;" style="text;align=left;verticalAlign=top;spacingLeft=4;spacingRight=4;overflow=hidden;rotatable=0;points=[[0,0.5],[1,0.5]];portConstraint=eastwest;whiteSpace=wrap;html=1;fillColor=#f5f5f5;strokeColor=#666666;fontColor=#333333;" vertex="1" parent="-wlRJgJCSJHxcQHZKysQ-1">
          <mxGeometry y="156" width="220" height="26" as="geometry" />
        </mxCell>
        <mxCell id="-wlRJgJCSJHxcQHZKysQ-5" style="edgeStyle=orthogonalEdgeStyle;rounded=0;orthogonalLoop=1;jettySize=auto;html=1;entryX=0.5;entryY=0;entryDx=0;entryDy=0;curved=1;exitX=0.5;exitY=1;exitDx=0;exitDy=0;" edge="1" parent="1" source="2QlJ33sq4UzQhBC_yE_C-7" target="-wlRJgJCSJHxcQHZKysQ-1">
          <mxGeometry relative="1" as="geometry">
            <mxPoint x="314" y="92" as="sourcePoint" />
            <mxPoint x="190" y="200" as="targetPoint" />
          </mxGeometry>
        </mxCell>
        <mxCell id="-wlRJgJCSJHxcQHZKysQ-6" value="&lt;font style=&quot;font-size: 14px;&quot;&gt;缺失值處理&lt;/font&gt;" style="edgeLabel;html=1;align=center;verticalAlign=middle;resizable=0;points=[];" vertex="1" connectable="0" parent="-wlRJgJCSJHxcQHZKysQ-5">
          <mxGeometry x="-0.2793" y="17" relative="1" as="geometry">
            <mxPoint as="offset" />
          </mxGeometry>
        </mxCell>
      </root>
    </mxGraphModel>
  </diagram>
</mxfile>
